<svg class="svg-icon" style="width: 1em; height: 1em;vertical-align: middle;fill: currentColor;overflow: hidden;" viewBox="0 0 1024 1024" version="1.1" xmlns="http://www.w3.org/2000/svg"><path d="M770.327273 930.909091H295.098182c-30.72 0-55.854545-25.134545-55.854546-55.854546V235.054545c0-30.72 25.134545-55.854545 55.854546-55.854545h475.229091c30.72 0 55.854545 25.134545 55.854545 55.854545V875.054545c0 30.72-25.134545 55.854545-55.854545 55.854546z" fill="#BBEBA1" /><path d="M549.236364 707.490909H274.618182c-13.032727 0-23.272727-10.24-23.272727-23.272727s10.24-23.272727 23.272727-23.272727h274.618182c13.032727 0 23.272727 10.24 23.272727 23.272727s-10.705455 23.272727-23.272727 23.272727zM642.327273 511.069091H274.618182c-13.032727 0-23.272727-10.24-23.272727-23.272727s10.24-23.272727 23.272727-23.272728h367.709091c13.032727 0 23.272727 10.24 23.272727 23.272728s-10.705455 23.272727-23.272727 23.272727zM642.327273 314.181818H274.618182c-13.032727 0-23.272727-10.24-23.272727-23.272727s10.24-23.272727 23.272727-23.272727h367.709091c13.032727 0 23.272727 10.24 23.272727 23.272727s-10.705455 23.272727-23.272727 23.272727z" fill="#353E43" /><path d="M695.854545 875.054545h-474.763636c-43.752727 0-79.127273-35.374545-79.127273-79.127272V162.909091c0-43.752727 35.374545-79.127273 79.127273-79.127273h474.763636c43.752727 0 79.127273 35.374545 79.127273 79.127273v169.890909c0 13.032727-10.24 23.272727-23.272727 23.272727s-23.272727-10.24-23.272727-23.272727V162.909091c0-18.152727-14.429091-32.581818-32.581819-32.581818h-474.763636c-18.152727 0-32.581818 14.429091-32.581818 32.581818v633.018182c0 18.152727 14.429091 32.581818 32.581818 32.581818h474.763636c18.152727 0 32.581818-14.429091 32.581819-32.581818v-116.363637c0-13.032727 10.24-23.272727 23.272727-23.272727s23.272727 10.24 23.272727 23.272727v116.363637c0 43.752727-35.374545 79.127273-79.127273 79.127272z" fill="#353E43" /><path d="M642.327273 583.68l-38.632728 77.265455 81.92-36.305455zM854.202182 360.541091l43.701527 41.858327-207.020218 216.143127-43.696873-41.853672z" fill="#353E43" /><path d="M853.738119 360.742997a30.254545 14.429091 42.405 1 0 44.679701 40.805323 30.254545 14.429091 42.405 1 0-44.679701-40.805323Z" fill="#353E43" /></svg>